<?xml version="1.0" encoding="utf-8"?>
<!-- Generator: Adobe Illustrator 24.2.0, SVG Export Plug-In . SVG Version: 6.00 Build 0)  -->
<svg version="1.1" xmlns="http://www.w3.org/2000/svg" xmlns:xlink="http://www.w3.org/1999/xlink" x="0px" y="0px"
	 viewBox="0 0 750 500" style="enable-background:new 0 0 750 500;" xml:space="preserve">
<style type="text/css">
	.st0{display:none;}
	.st1{display:inline;fill:url(#SVGID_1_);}
	.st2{opacity:0.4;}
	.st3{fill:none;stroke:#FFFFFF;stroke-width:1.3;stroke-linecap:round;stroke-linejoin:round;stroke-miterlimit:10;}
	.st4{clip-path:url(#SVGID_3_);}
	.st5{fill:#D7D1FF;stroke:#5640C2;stroke-width:1.5;stroke-linecap:round;stroke-linejoin:round;stroke-miterlimit:10;}
	.st6{fill:#FFA8FF;stroke:#5640C2;stroke-width:1.5;stroke-linecap:round;stroke-linejoin:round;stroke-miterlimit:10;}
	.st7{fill:#BB9EF9;stroke:#5640C2;stroke-width:1.5;stroke-linecap:round;stroke-linejoin:round;stroke-miterlimit:10;}
	.st8{fill:#FFFFFF;stroke:#5640C2;stroke-width:1.5;stroke-linecap:round;stroke-linejoin:round;stroke-miterlimit:10;}
	.st9{fill:#D5FFBB;stroke:#5640C2;stroke-width:1.5;stroke-linecap:round;stroke-linejoin:round;stroke-miterlimit:10;}
	
		.st10{clip-path:url(#SVGID_3_);fill:#FFA8FF;stroke:#5640C2;stroke-width:1.6667;stroke-linecap:round;stroke-linejoin:round;stroke-miterlimit:10;}
	.st11{fill:#D5FFFB;stroke:#5640C2;stroke-width:1.5;stroke-linecap:round;stroke-linejoin:round;stroke-miterlimit:10;}
	.st12{fill:none;stroke:#5640C2;stroke-width:1.5;stroke-linecap:round;stroke-linejoin:round;stroke-miterlimit:10;}
	.st13{fill:none;stroke:#5640C2;stroke-width:1.6667;stroke-linecap:round;stroke-linejoin:round;stroke-miterlimit:10;}
	.st14{fill:#F8E991;stroke:#5640C2;stroke-width:1.5;stroke-linecap:round;stroke-linejoin:round;stroke-miterlimit:10;}
	.st15{fill:#EEC0F9;stroke:#5640C2;stroke-width:1.5;stroke-linecap:round;stroke-linejoin:round;stroke-miterlimit:10;}
	.st16{fill:#5640C2;}
	.st17{fill:#BB9EF9;stroke:#5640C2;stroke-width:1.6667;stroke-linecap:round;stroke-linejoin:round;stroke-miterlimit:10;}
	.st18{clip-path:url(#SVGID_3_);fill:#FFFFFF;}
	.st19{fill:#FFFFFF;}
	.st20{fill:#FFA8FF;stroke:#5640C2;stroke-width:1.6667;stroke-linecap:round;stroke-linejoin:round;stroke-miterlimit:10;}
</style>
<g id="BACKGROUND" class="st0">
	<linearGradient id="SVGID_1_" gradientUnits="userSpaceOnUse" x1="375" y1="500" x2="375" y2="0">
		<stop  offset="0" style="stop-color:#FFCE88"/>
		<stop  offset="7.719168e-02" style="stop-color:#F4C59A"/>
		<stop  offset="0.3186" style="stop-color:#D6ACD0"/>
		<stop  offset="0.4999" style="stop-color:#C39CF1"/>
		<stop  offset="0.599" style="stop-color:#BC96FD"/>
		<stop  offset="1" style="stop-color:#9A77FD"/>
	</linearGradient>
	<rect class="st1" width="750" height="500"/>
</g>
<g id="OBJECTS">
	<g class="st2">
		<g>
			<line class="st3" x1="46.9" y1="0" x2="46.9" y2="500"/>
			<line class="st3" x1="93.8" y1="0" x2="93.8" y2="500"/>
			<line class="st3" x1="140.6" y1="0" x2="140.6" y2="500"/>
			<line class="st3" x1="187.5" y1="0" x2="187.5" y2="500"/>
			<line class="st3" x1="281.2" y1="0" x2="281.2" y2="500"/>
			<line class="st3" x1="328.1" y1="0" x2="328.1" y2="500"/>
			<line class="st3" x1="421.9" y1="0" x2="421.9" y2="500"/>
			<line class="st3" x1="515.6" y1="0" x2="515.6" y2="500"/>
			<line class="st3" x1="562.5" y1="0" x2="562.5" y2="500"/>
			<line class="st3" x1="656.2" y1="0" x2="656.2" y2="500"/>
			<line class="st3" x1="703.1" y1="0" x2="703.1" y2="500"/>
			<line class="st3" x1="609.4" y1="0" x2="609.4" y2="500"/>
			<line class="st3" x1="468.8" y1="0" x2="468.8" y2="500"/>
			<line class="st3" x1="375" y1="0" x2="375" y2="500"/>
			<line class="st3" x1="234.4" y1="0" x2="234.4" y2="500"/>
		</g>
		<g>
			<line class="st3" x1="750" y1="39.1" x2="0" y2="39.1"/>
			<line class="st3" x1="750" y1="85.9" x2="0" y2="85.9"/>
			<line class="st3" x1="750" y1="132.8" x2="0" y2="132.8"/>
			<line class="st3" x1="750" y1="179.7" x2="0" y2="179.7"/>
			<line class="st3" x1="750" y1="273.4" x2="0" y2="273.4"/>
			<line class="st3" x1="750" y1="320.3" x2="0" y2="320.3"/>
			<line class="st3" x1="750" y1="414.1" x2="0" y2="414.1"/>
			<line class="st3" x1="750" y1="460.9" x2="0" y2="460.9"/>
			<line class="st3" x1="750" y1="367.2" x2="0" y2="367.2"/>
			<line class="st3" x1="750" y1="226.6" x2="0" y2="226.6"/>
		</g>
	</g>
	<g>
		<defs>
			<rect id="SVGID_2_" width="750" height="500"/>
		</defs>
		<clipPath id="SVGID_3_">
			<use xlink:href="#SVGID_2_"  style="overflow:visible;"/>
		</clipPath>
		<g class="st4">
			<g>
				<path class="st5" d="M327.8,249H83.4c-8.1,0-14.8-6.6-14.8-14.8V71.5c0-8.1,6.6-14.8,14.8-14.8h244.4c8.1,0,14.8,6.6,14.8,14.8
					v162.8C342.6,242.4,336,249,327.8,249z"/>
				<path class="st6" d="M327.8,56.7H83.4c-8.1,0-14.8,6.6-14.8,14.8v15.3h273.9V71.5C342.6,63.3,336,56.7,327.8,56.7z"/>
				<rect x="94.4" y="101.6" class="st7" width="54.6" height="49.3"/>
				<rect x="94.4" y="176.3" class="st7" width="227.4" height="72.7"/>
			</g>
			<g>
				<circle class="st8" cx="93.4" cy="71.9" r="7.2"/>
				<circle class="st8" cx="116.9" cy="71.9" r="7.2"/>
				<circle class="st8" cx="140.4" cy="71.9" r="7.2"/>
				<g>
					<line class="st8" x1="166.2" y1="67.9" x2="325.1" y2="67.9"/>
					<line class="st8" x1="166.2" y1="75.9" x2="325.1" y2="75.9"/>
				</g>
			</g>
		</g>
		<g class="st4">
			<path class="st5" d="M671.1,445.2H543.3c-8.1,0-14.8-6.6-14.8-14.8V201c0-8.1,6.6-14.8,14.8-14.8h127.7c8.1,0,14.8,6.6,14.8,14.8
				v229.5C685.8,438.6,679.2,445.2,671.1,445.2z"/>
			<path class="st9" d="M671.1,186.2H543.3c-8.1,0-14.8,6.6-14.8,14.8v15.3h157.2V201C685.8,192.8,679.2,186.2,671.1,186.2z"/>
			<rect x="646.5" y="192" class="st8" width="18.5" height="18.5"/>
		</g>
		<path class="st10" d="M659.1,197.6c-1.3-0.4-2.9,0.3-3.4,1.6c-0.5-1.4-2.1-2.1-3.4-1.6c-1.6,0.5-2,2.1-1.5,3.5
			c0.9,2.7,4.9,4,4.9,4l0,0c0,0,4-1.3,4.9-4C661.2,199.7,660.7,198.1,659.1,197.6z"/>
		<g class="st4">
			<g>
				<path class="st6" d="M563.9,377.3H186.1c-8.1,0-14.8-6.6-14.8-14.8V133c0-8.1,6.6-14.8,14.8-14.8h377.7
					c8.1,0,14.8,6.6,14.8,14.8v229.5C578.6,370.7,572,377.3,563.9,377.3z"/>
				<path class="st11" d="M563.9,118.3H186.1c-8.1,0-14.8,6.6-14.8,14.8v15.3h407.2V133C578.6,124.9,572,118.3,563.9,118.3z"/>
				<path class="st11" d="M186.1,371.4h377.7c8.1,0,14.8-6.6,14.8-14.8v-15.3H171.4v15.3C171.4,364.8,178,371.4,186.1,371.4z"/>
				<rect x="539.3" y="124.1" class="st8" width="18.5" height="18.5"/>
				<rect x="513.1" y="124.1" class="st8" width="18.5" height="18.5"/>
				<rect x="486.9" y="124.1" class="st8" width="18.5" height="18.5"/>
				<line class="st12" x1="543.8" y1="138" x2="553.3" y2="128.6"/>
				<line class="st12" x1="543.8" y1="128.6" x2="553.3" y2="138"/>
				<rect x="517.6" y="128.6" class="st12" width="9.4" height="9.4"/>
				<line class="st12" x1="500.8" y1="138" x2="491.4" y2="138"/>
				<g>
					<g>
						<line class="st13" x1="541" y1="356.4" x2="556.7" y2="356.4"/>
						<polyline class="st13" points="551.4,351 556.7,356.4 551.4,361.8 						"/>
					</g>
					<g>
						<line class="st13" x1="209" y1="356.4" x2="193.3" y2="356.4"/>
						<polyline class="st13" points="198.6,361.8 193.3,356.4 198.6,351 						"/>
					</g>
				</g>
				<g>
					<polyline class="st12" points="568.2,325 564.2,329 560.2,325 					"/>
					<polyline class="st12" points="560.2,163.4 564.2,159.4 568.2,163.4 					"/>
				</g>
				<g>
					<line class="st12" x1="199.9" y1="148.3" x2="199.9" y2="341.4"/>
					<line class="st12" x1="550.1" y1="148.3" x2="550.1" y2="341.4"/>
				</g>
				<path class="st8" d="M564.2,315.7L564.2,315.7c-2.8,0-5.1-2.3-5.1-5.1V177.9c0-2.8,2.3-5.1,5.1-5.1l0,0c2.8,0,5.1,2.3,5.1,5.1
					v132.7C569.3,313.4,567,315.7,564.2,315.7z"/>
			</g>
			
				<rect x="286.8" y="78.1" transform="matrix(-1.836970e-16 1 -1 -1.836970e-16 619.8505 -130.149)" class="st8" width="176.3" height="333.5"/>
		</g>
		<g class="st4">
			<rect x="108.8" y="273.2" class="st14" width="83.6" height="52.9"/>
			<polygon class="st8" points="150,264.7 114.7,264.7 108.8,273.2 155.8,273.2 			"/>
			<path class="st6" d="M164.4,284.7c-5.4-1.8-11.8,1-14,6.7c-2.2-5.7-8.6-8.5-14-6.7c-6.5,2.1-8.3,8.7-6.3,14.5
				c3.8,11.1,20.3,16.5,20.3,16.5h0c0,0,16.5-5.4,20.3-16.5C172.7,293.4,170.9,286.8,164.4,284.7z"/>
		</g>
		<g class="st4">
			<path class="st11" d="M668.6,269c0.1-2-0.7-3.8-2.1-5c2.7-1.6,4-4.9,2.9-7.9c-0.9-2.3-2.8-3.8-5.1-4.1c2.5-2.5,2.6-6.5,0.1-9.1
				c-2.1-2.2-5.3-2.6-7.8-1.3c1.3-3.2-0.3-6.9-3.5-8.3c-3.2-1.4-6.9,0-8.4,3.2c-0.7-2.7-3.2-4.8-6.2-4.8c-3.5,0-6.4,2.8-6.5,6.3
				c-1.8-1.4-4.2-1.8-6.5-0.9c-3,1.2-4.6,4.5-3.8,7.5c-1.8-0.1-3.7,0.5-5.1,1.9c-2.5,2.6-2.1,6.4,0.1,9.2c1.5,1.9,6.3,6.5,11.5,9.7
				l-4.3,3.1c-1.2,0.8-1,2.6,0.3,3.2l20.9,9c1.3,0.6,2.8-0.5,2.6-1.9l-0.7-5.2c5.8,1.6,12.5,1.9,14.9,1.7
				C665.4,274.9,668.4,272.6,668.6,269z"/>
			<g>
				<line class="st15" x1="649.8" y1="241.1" x2="642.3" y2="258.4"/>
				<line class="st15" x1="638.9" y1="238.7" x2="639.3" y2="256.9"/>
				<line class="st15" x1="628.8" y1="241.3" x2="635.5" y2="256.6"/>
				<line class="st15" x1="622" y1="249.9" x2="631.2" y2="258.3"/>
				<line class="st15" x1="659" y1="247.4" x2="645.4" y2="259.6"/>
				<line class="st15" x1="664" y1="256.6" x2="648.3" y2="262.1"/>
				<line class="st15" x1="662.4" y1="267.4" x2="650" y2="266.4"/>
			</g>
		</g>
		<g class="st4">
			<path class="st9" d="M140.9,119.6c-1-1.1-2.4-1.6-3.7-1.6c0.6-2.2-0.5-4.7-2.7-5.7c-1.6-0.7-3.5-0.5-4.8,0.5
				c0-2.6-2.1-4.8-4.7-4.8c-2.2-0.1-4.1,1.4-4.7,3.4c-1-2.4-3.8-3.5-6.2-2.5c-2.4,1-3.6,3.7-2.8,6.1c-1.8-1.1-4.2-0.8-5.8,0.8
				c-1.9,1.8-1.9,4.8-0.1,6.7c-1.7,0.2-3.2,1.3-3.9,2.9c-0.9,2.2,0,4.7,1.9,5.9c-1,0.9-1.7,2.2-1.7,3.7c0,2.7,2.2,4.4,4.9,4.8
				c1.8,0.2,6.8,0.1,11.1-0.9l-0.6,3.8c-0.2,1.1,0.9,1.9,1.9,1.5l15.7-6.2c1-0.4,1.2-1.7,0.3-2.4l-3.1-2.4c3.9-2.2,7.6-5.5,8.7-6.9
				C142.4,124.4,142.7,121.6,140.9,119.6z"/>
			<g>
				<line class="st15" x1="116.5" y1="114.9" x2="121.6" y2="127.8"/>
				<line class="st15" x1="109.5" y1="119.3" x2="119.3" y2="128.6"/>
				<line class="st15" x1="105.5" y1="126" x2="117.1" y2="130.5"/>
				<line class="st15" x1="106.5" y1="134.1" x2="115.7" y2="133.6"/>
				<line class="st15" x1="124.6" y1="113.3" x2="123.8" y2="126.8"/>
				<line class="st15" x1="132" y1="115.5" x2="126.7" y2="126.7"/>
				<line class="st15" x1="136.8" y1="122" x2="129.8" y2="128"/>
			</g>
		</g>
		<g class="st4">
			
				<ellipse transform="matrix(0.7071 -0.7071 0.7071 0.7071 -64.3751 230.5397)" class="st14" cx="246.1" cy="193" rx="22" ry="22"/>
			<path class="st12" d="M261.6,193c0,8.6-7,15.5-15.5,15.5c-8.6,0-15.5-7-15.5-15.5"/>
			<g>
				<circle class="st16" cx="239.8" cy="185.3" r="2.1"/>
				<circle class="st16" cx="252.4" cy="185.3" r="2.1"/>
			</g>
		</g>
		<g class="st4">
			<path class="st14" d="M641.5,407H492.2c-5.1,0-9.2-4.1-9.2-9.2v-91.4c0-5.1,4.1-9.2,9.2-9.2h149.3c5.1,0,9.2,4.1,9.2,9.2v91.4
				C650.6,402.9,646.6,407,641.5,407z"/>
			<path class="st5" d="M493.5,370.4V313c0-3,2.4-5.4,5.4-5.4h136.1c3,0,5.4,2.4,5.4,5.4v57.4c0,3-2.4,5.4-5.4,5.4H498.8
				C495.9,375.8,493.5,373.4,493.5,370.4z"/>
			<path class="st7" d="M634.9,307.6H498.8c-3,0-5.4,2.4-5.4,5.4v15.8h146.8V313C640.2,310,637.8,307.6,634.9,307.6z"/>
			<polygon class="st14" points="622,409.6 511.7,409.6 520.9,384.7 612.8,384.7 			"/>
			<path class="st17" d="M569.2,394.5c0,1.3-1.1,2.4-2.4,2.4s-2.4-1.1-2.4-2.4s1.1-2.4,2.4-2.4S569.2,393.2,569.2,394.5z"/>
			<g>
				<path class="st17" d="M603.2,399.4c0,1.3-1.1,2.4-2.4,2.4s-2.4-1.1-2.4-2.4c0-1.3,1.1-2.4,2.4-2.4S603.2,398.1,603.2,399.4z"/>
				<path class="st17" d="M533.7,399.4c0,1.3-1.1,2.4-2.4,2.4c-1.3,0-2.4-1.1-2.4-2.4c0-1.3,1.1-2.4,2.4-2.4
					C532.6,397,533.7,398.1,533.7,399.4z"/>
			</g>
			<g>
				<path class="st7" d="M504.8,393.5c0,3.1-2.5,5.7-5.7,5.7c-3.1,0-5.7-2.5-5.7-5.7c0-3.1,2.5-5.7,5.7-5.7
					C502.2,387.8,504.8,390.3,504.8,393.5z"/>
				<path class="st7" d="M640.2,393.5c0,3.1-2.5,5.7-5.7,5.7s-5.7-2.5-5.7-5.7c0-3.1,2.5-5.7,5.7-5.7S640.2,390.3,640.2,393.5z"/>
			</g>
			<rect x="513.3" y="335" class="st7" width="107.6" height="23.9"/>
			<g>
				
					<ellipse transform="matrix(0.1606 -0.987 0.987 0.1606 104.4482 816.9735)" class="st7" cx="532.5" cy="347.1" rx="7.7" ry="7.7"/>
				
					<ellipse transform="matrix(0.1606 -0.987 0.987 0.1606 158.7678 880.8439)" class="st7" cx="597.2" cy="347.1" rx="7.7" ry="7.7"/>
			</g>
			<g>
				<rect x="545.7" y="339.3" class="st14" width="37.7" height="14.2"/>
				<g>
					<path class="st14" d="M572.5,347.1c0,2.2,0.3,4.4,0.8,6.4h10.1v-14.2h-9.7C572.9,341.8,572.5,344.4,572.5,347.1z"/>
					<path class="st14" d="M556.6,345.8c0-2.2-0.3-4.4-0.8-6.4h-10.1v14.2h9.7C556.1,351.1,556.6,348.5,556.6,345.8z"/>
				</g>
			</g>
		</g>
		<path class="st18" d="M390,67.9c0,0.8-0.6,1.4-1.4,1.4c-0.8,0-1.4-0.6-1.4-1.4s0.6-1.4,1.4-1.4C389.4,66.6,390,67.2,390,67.9z"/>
		<circle class="st18" cx="408.2" cy="46.6" r="1.4"/>
		<g class="st4">
			<path class="st19" d="M28.5,254.1c0,0.8-0.6,1.4-1.4,1.4s-1.4-0.6-1.4-1.4s0.6-1.4,1.4-1.4S28.5,253.3,28.5,254.1z"/>
			<path class="st19" d="M44.5,251.4c0,0.8-0.6,1.4-1.4,1.4c-0.8,0-1.4-0.6-1.4-1.4c0-0.8,0.6-1.4,1.4-1.4
				C43.9,250,44.5,250.6,44.5,251.4z"/>
			<path class="st19" d="M98.6,283.8c0,0.8-0.6,1.4-1.4,1.4s-1.4-0.6-1.4-1.4s0.6-1.4,1.4-1.4S98.6,283,98.6,283.8z"/>
			<path class="st19" d="M57.9,389.1c0,0.8-0.6,1.4-1.4,1.4c-0.8,0-1.4-0.6-1.4-1.4s0.6-1.4,1.4-1.4
				C57.3,387.8,57.9,388.4,57.9,389.1z"/>
			<path class="st19" d="M56.5,438.8c0,0.8-0.6,1.4-1.4,1.4c-0.8,0-1.4-0.6-1.4-1.4s0.6-1.4,1.4-1.4
				C55.9,437.5,56.5,438.1,56.5,438.8z"/>
			<path class="st19" d="M42,400.7c0,0.8-0.6,1.4-1.4,1.4c-0.8,0-1.4-0.6-1.4-1.4c0-0.8,0.6-1.4,1.4-1.4C41.4,399.3,42,400,42,400.7
				z"/>
			<path class="st19" d="M117.6,390.5c0,0.8-0.6,1.4-1.4,1.4s-1.4-0.6-1.4-1.4c0-0.8,0.6-1.4,1.4-1.4S117.6,389.7,117.6,390.5z"/>
			<path class="st19" d="M703.2,390.4c0,4.7,3.8,8.6,8.5,8.6l0,0l0,0c-4.8,0-8.6,3.8-8.6,8.6l0,1.7l0-1.7c0-4.7-3.8-8.6-8.5-8.6l0,0
				l0,0C699.3,399,703.1,395.2,703.2,390.4l0-1.7L703.2,390.4z"/>
			<path class="st19" d="M721.5,382.4c0,0.8-0.6,1.4-1.4,1.4s-1.4-0.6-1.4-1.4s0.6-1.4,1.4-1.4S721.5,381.7,721.5,382.4z"/>
			<path class="st19" d="M734.3,393.3c0,0.8-0.6,1.4-1.4,1.4c-0.8,0-1.4-0.6-1.4-1.4c0-0.8,0.6-1.4,1.4-1.4
				C733.6,391.9,734.3,392.5,734.3,393.3z"/>
			<circle class="st19" cx="714.7" cy="302.9" r="1.4"/>
			<path class="st19" d="M694.3,439.4c0,0.8-0.6,1.4-1.4,1.4s-1.4-0.6-1.4-1.4s0.6-1.4,1.4-1.4S694.3,438.7,694.3,439.4z"/>
			<path class="st19" d="M435.1,448.9c0,0.8-0.6,1.4-1.4,1.4c-0.8,0-1.4-0.6-1.4-1.4s0.6-1.4,1.4-1.4
				C434.5,447.5,435.1,448.1,435.1,448.9z"/>
			<path class="st19" d="M456,420.7c0,0.8-0.6,1.4-1.4,1.4c-0.8,0-1.4-0.6-1.4-1.4c0-0.8,0.6-1.4,1.4-1.4
				C455.4,419.4,456,420,456,420.7z"/>
			<path class="st19" d="M396.5,487.8c0,0.8-0.6,1.4-1.4,1.4c-0.8,0-1.4-0.6-1.4-1.4c0-0.8,0.6-1.4,1.4-1.4
				C395.9,486.4,396.5,487,396.5,487.8z"/>
			<path class="st19" d="M430.5,442.7c0,0.8-0.6,1.4-1.4,1.4c-0.8,0-1.4-0.6-1.4-1.4s0.6-1.4,1.4-1.4
				C429.9,441.3,430.5,442,430.5,442.7z"/>
			<path class="st19" d="M480.5,442.7c0,0.8-0.6,1.4-1.4,1.4c-0.8,0-1.4-0.6-1.4-1.4s0.6-1.4,1.4-1.4
				C479.9,441.3,480.5,442,480.5,442.7z"/>
			<path class="st19" d="M427.8,394.5c0,0.8-0.6,1.4-1.4,1.4c-0.8,0-1.4-0.6-1.4-1.4c0-0.8,0.6-1.4,1.4-1.4
				C427.2,393.1,427.8,393.7,427.8,394.5z"/>
			<path class="st19" d="M34.1,57c0,0.8-0.6,1.4-1.4,1.4c-0.8,0-1.4-0.6-1.4-1.4c0-0.8,0.6-1.4,1.4-1.4C33.5,55.6,34.1,56.2,34.1,57
				z"/>
			<path class="st19" d="M56.5,31c0,0.8-0.6,1.4-1.4,1.4c-0.8,0-1.4-0.6-1.4-1.4s0.6-1.4,1.4-1.4C55.9,29.7,56.5,30.3,56.5,31z"/>
			<circle class="st19" cx="63.8" cy="54.2" r="1.4"/>
			<path class="st19" d="M70,45.5c0,0.8-0.6,1.4-1.4,1.4c-0.8,0-1.4-0.6-1.4-1.4c0-0.8,0.6-1.4,1.4-1.4C69.4,44.1,70,44.8,70,45.5z"
				/>
			<path class="st19" d="M56.5,108.1c0,0.8-0.6,1.4-1.4,1.4c-0.8,0-1.4-0.6-1.4-1.4s0.6-1.4,1.4-1.4
				C55.9,106.7,56.5,107.3,56.5,108.1z"/>
			<path class="st19" d="M123,29.7c0,0.8-0.6,1.4-1.4,1.4c-0.8,0-1.4-0.6-1.4-1.4s0.6-1.4,1.4-1.4C122.3,28.3,123,28.9,123,29.7z"/>
			<path class="st19" d="M29.2,150.9c0,0.8-0.6,1.4-1.4,1.4s-1.4-0.6-1.4-1.4s0.6-1.4,1.4-1.4S29.2,150.1,29.2,150.9z"/>
			<circle class="st19" cx="320.4" cy="46.6" r="1.4"/>
			<path class="st19" d="M166.2,382C166.2,382,166.1,382,166.2,382c-4.5,0-8.1-3.7-8.1-8.2c0,0,0,0,0-0.1l0-1.7
				c0-0.2-0.2-0.4-0.4-0.4c0,0,0,0,0,0c-0.2,0-0.4,0.2-0.4,0.4l0,1.7c0,0,0,0,0,0c0,2.2-0.9,4.2-2.4,5.7c-1.5,1.5-3.6,2.4-5.8,2.4
				c0,0,0,0,0,0c0,0,0,0,0,0c-0.2,0-0.4,0.2-0.4,0.4c0,0.2,0.2,0.4,0.4,0.4c0,0,0,0,0,0c4.5,0,8.1,3.7,8.1,8.2c0,0,0,0,0,0.1l0,1.7
				c0,0.2,0.2,0.4,0.4,0.4c0.2,0,0.4-0.2,0.4-0.4l0-1.7c0,0,0,0,0,0c0-2.2,0.9-4.2,2.4-5.7c1.5-1.5,3.6-2.4,5.8-2.4c0,0,0,0,0.1,0
				c0.2,0,0.4-0.2,0.4-0.4C166.6,382.2,166.4,382,166.2,382z"/>
			<path class="st19" d="M119,359.6C119,359.6,119,359.6,119,359.6c-9.6-0.1-17.3-7.9-17.3-17.4l0-3.6c0-0.2-0.2-0.4-0.4-0.4
				c-0.2,0-0.4,0.2-0.4,0.4l0,3.6c0,4.6-1.9,9-5.1,12.3c-3.3,3.2-7.6,5-12.2,5c0,0-0.1,0-0.1,0c-0.2,0-0.4,0.2-0.4,0.4
				c0,0.2,0.2,0.4,0.4,0.4c0,0,0,0,0.1,0c9.5,0.1,17.3,7.9,17.2,17.4l0,3.6c0,0.2,0.2,0.4,0.4,0.4c0,0,0,0,0,0
				c0.2,0,0.4-0.2,0.4-0.4l0-3.6c0-4.6,1.9-9,5.1-12.3c3.3-3.3,7.7-5.1,12.3-5c0,0,0,0,0,0c0.2,0,0.4-0.2,0.4-0.4
				C119.4,359.8,119.3,359.7,119,359.6z"/>
			<path class="st19" d="M77.3,268.6C77.3,268.6,77.3,268.6,77.3,268.6c-4.5,0-8.2-3.7-8.1-8.2l0-1.7c0-0.2-0.2-0.4-0.4-0.4
				c0,0,0,0,0,0c-0.2,0-0.4,0.2-0.4,0.4l0,1.7c0,2.2-0.9,4.2-2.4,5.8c-1.5,1.5-3.6,2.4-5.8,2.4c0,0,0,0-0.1,0
				c-0.2,0-0.4,0.2-0.4,0.4c0,0.2,0.2,0.4,0.4,0.4c0,0,0,0,0,0c4.5,0,8.1,3.7,8.1,8.2l0,1.7c0,0.2,0.2,0.4,0.4,0.4c0,0,0,0,0,0
				c0.2,0,0.4-0.2,0.4-0.4l0-1.7c0-2.2,0.9-4.2,2.4-5.8c1.5-1.5,3.6-2.4,5.8-2.4c0,0,0,0,0,0c0,0,0,0,0,0c0.2,0,0.4-0.2,0.4-0.4
				C77.7,268.8,77.5,268.6,77.3,268.6z"/>
			<path class="st19" d="M591.8,56.6C591.8,56.6,591.8,56.6,591.8,56.6c-4.5,0-8.2-3.7-8.1-8.2l0-1.7c0-0.2-0.2-0.4-0.4-0.4
				c0,0,0,0,0,0c-0.2,0-0.4,0.2-0.4,0.4l0,1.7c0,2.2-0.9,4.2-2.4,5.8c-1.6,1.5-3.6,2.4-5.8,2.4c0,0,0,0,0,0c-0.2,0-0.4,0.2-0.4,0.4
				c0,0.2,0.2,0.4,0.4,0.4c0,0,0,0,0,0c4.5,0,8.1,3.7,8.1,8.2l0,1.7c0,0.2,0.2,0.4,0.4,0.4c0,0,0,0,0,0c0.2,0,0.4-0.2,0.4-0.4l0-1.7
				c0-2.2,0.9-4.2,2.4-5.8c1.5-1.5,3.6-2.4,5.8-2.4c0,0,0,0,0,0c0.2,0,0.4-0.2,0.4-0.4C592.2,56.8,592,56.6,591.8,56.6z"/>
			<path class="st19" d="M687,156.3C687,156.3,687,156.3,687,156.3c-4.5,0-8.2-3.7-8.1-8.2l0-1.7c0-0.2-0.2-0.4-0.4-0.4c0,0,0,0,0,0
				c-0.2,0-0.4,0.2-0.4,0.4l0,1.7c0,2.2-0.9,4.2-2.4,5.8c-1.5,1.5-3.6,2.4-5.8,2.4c0,0,0,0,0,0c0,0,0,0,0,0c-0.2,0-0.4,0.2-0.4,0.4
				c0,0.2,0.2,0.4,0.4,0.4c0,0,0,0,0,0c4.5,0,8.1,3.7,8.1,8.2l0,1.7c0,0.2,0.2,0.4,0.4,0.4c0,0,0,0,0,0c0.2,0,0.4-0.2,0.4-0.4l0-1.7
				c0-2.2,0.9-4.2,2.4-5.8c1.5-1.5,3.6-2.4,5.8-2.4c0,0,0,0,0,0c0,0,0,0,0,0c0.2,0,0.4-0.2,0.4-0.4
				C687.4,156.5,687.2,156.3,687,156.3z"/>
			<path class="st19" d="M561.6,81.9C561.6,81.9,561.6,81.9,561.6,81.9c-9.6-0.1-17.3-7.9-17.3-17.4l0-3.6c0-0.2-0.2-0.4-0.4-0.4
				c0,0,0,0,0,0c-0.2,0-0.4,0.2-0.4,0.4l0,3.6c0,4.6-1.9,9-5.1,12.3c-3.3,3.2-7.6,5-12.2,5c0,0-0.1,0-0.1,0c0,0,0,0,0,0
				c-0.2,0-0.4,0.2-0.4,0.4c0,0.2,0.2,0.4,0.4,0.4c0,0,0,0,0.1,0c9.5,0.1,17.2,7.8,17.2,17.4c0,0,0,0.1,0,0.1l0,3.6
				c0,0.2,0.2,0.4,0.4,0.4c0,0,0,0,0,0c0.2,0,0.4-0.2,0.4-0.4l0-3.6c0,0,0-0.1,0-0.1c0.1-4.6,1.9-8.9,5.1-12.1c3.3-3.2,7.6-5,12.2-5
				c0,0,0.1,0,0.1,0c0.2,0,0.4-0.2,0.4-0.4C562,82.1,561.9,81.9,561.6,81.9z"/>
			<path class="st19" d="M554,59.5c0,0.8-0.6,1.4-1.4,1.4s-1.4-0.6-1.4-1.4c0-0.8,0.6-1.4,1.4-1.4S554,58.8,554,59.5z"/>
			<path class="st19" d="M488.2,62.2c0,0.8-0.6,1.4-1.4,1.4c-0.8,0-1.4-0.6-1.4-1.4s0.6-1.4,1.4-1.4
				C487.6,60.9,488.2,61.5,488.2,62.2z"/>
			<path class="st19" d="M662.8,95c0,0.8-0.6,1.4-1.4,1.4s-1.4-0.6-1.4-1.4s0.6-1.4,1.4-1.4S662.8,94.3,662.8,95z"/>
			<circle class="st19" cx="707.8" cy="46.6" r="1.4"/>
			<path class="st19" d="M706.4,32.8c0,0.8-0.6,1.4-1.4,1.4c-0.8,0-1.4-0.6-1.4-1.4s0.6-1.4,1.4-1.4
				C705.7,31.5,706.4,32.1,706.4,32.8z"/>
			<path class="st19" d="M733.8,63.6c0,0.8-0.6,1.4-1.4,1.4s-1.4-0.6-1.4-1.4s0.6-1.4,1.4-1.4S733.8,62.9,733.8,63.6z"/>
			<path class="st19" d="M615.8,22.3c0,0.8-0.6,1.4-1.4,1.4S613,23,613,22.3c0-0.8,0.6-1.4,1.4-1.4S615.8,21.5,615.8,22.3z"/>
			<path class="st19" d="M639.6,172.7c0,0.8-0.6,1.4-1.4,1.4s-1.4-0.6-1.4-1.4c0-0.8,0.6-1.4,1.4-1.4S639.6,172,639.6,172.7z"/>
			<path class="st19" d="M705,142.5c0,0.8-0.6,1.4-1.4,1.4c-0.8,0-1.4-0.6-1.4-1.4c0-0.8,0.6-1.4,1.4-1.4
				C704.4,141.2,705,141.8,705,142.5z"/>
			<circle class="st19" cx="525.3" cy="103.6" r="1.4"/>
		</g>
		<g class="st4">
			<path class="st14" d="M689.2,81.8c0.2,1.5,0.3,3,0.3,4.5c0,18.7-15.1,33.8-33.8,33.8s-33.8-15.1-33.8-33.8
				c0-18.7,15.1-33.8,33.8-33.8c4.3,0,8.4,0.8,12.2,2.3c-6.4-3.5-13.7-5.6-21.5-5.6c-24.5,0-44.4,19.9-44.4,44.4
				c0,24.5,19.9,44.4,44.4,44.4c24.5,0,44.4-19.9,44.4-44.4C690.8,89.5,690.3,85.6,689.2,81.8z"/>
			<polygon class="st14" points="605.8,160.6 598.1,164.7 599.6,156.1 593.4,150.1 602,148.8 605.8,141.1 609.6,148.8 618.2,150.1 
				612,156.1 613.4,164.7 			"/>
			<polygon class="st14" points="62.5,335.7 54.8,339.7 56.3,331.2 50.1,325.1 58.6,323.9 62.5,316.1 66.3,323.9 74.9,325.1 
				68.7,331.2 70.1,339.7 			"/>
			<polygon class="st14" points="364.3,46.8 356.6,50.8 358.1,42.3 351.9,36.3 360.4,35 364.3,27.3 368.1,35 376.7,36.3 370.5,42.3 
				371.9,50.8 			"/>
			<polygon class="st14" points="509.1,463.2 501.5,467.2 502.9,458.7 496.7,452.6 505.3,451.4 509.1,443.6 513,451.4 521.5,452.6 
				515.3,458.7 516.8,467.2 			"/>
		</g>
		<g class="st4">
			<g>
				<rect x="68.7" y="406.8" class="st5" width="333.4" height="38.4"/>
				<rect x="68.7" y="406.8" class="st9" width="59.6" height="38.4"/>
				
					<rect x="251" y="294.1" transform="matrix(-1.836970e-16 1 -1 -1.836970e-16 691.1672 160.8244)" class="st8" width="28.4" height="263.8"/>
			</g>
			<line class="st13" x1="155.5" y1="433.9" x2="139.7" y2="433.9"/>
			<path class="st20" d="M104.8,416.5c-4.7-4.7-12.4-4.7-17.2,0c-4.7,4.7-4.7,12.4,0,17.1c4,4,10.3,4.6,14.9,1.7l5.3,5.3l4-4
				l-5.3-5.3C109.4,426.7,108.9,420.5,104.8,416.5z M100.9,429.7c-2.5,2.5-6.7,2.5-9.2,0c-2.5-2.5-2.5-6.7,0-9.2
				c2.5-2.5,6.7-2.5,9.2,0C103.4,423,103.4,427.1,100.9,429.7z"/>
		</g>
	</g>
</g>
<g id="Layer_3">
</g>
</svg>
