<?xml version="1.0" encoding="utf-8"?>
<!-- Generator: Adobe Illustrator 24.2.0, SVG Export Plug-In . SVG Version: 6.00 Build 0)  -->
<svg version="1.1" id="Layer_1" xmlns="http://www.w3.org/2000/svg" xmlns:xlink="http://www.w3.org/1999/xlink" x="0px" y="0px"
	 viewBox="0 0 64 61.4" style="enable-background:new 0 0 64 61.4;" xml:space="preserve">
<style type="text/css">
	.st0{fill:#A637C2;stroke:#000315;stroke-width:0.1;stroke-miterlimit:10;}
</style>
<g>
	<circle class="st0" cx="12" cy="55" r="1"/>
	<circle class="st0" cx="50" cy="55" r="1"/>
	<path class="st0" d="M12,50c-2.8,0-5,2.2-5,5s2.2,5,5,5s5-2.2,5-5S14.8,50,12,50z M12,58c-1.7,0-3-1.3-3-3s1.3-3,3-3s3,1.3,3,3
		S13.7,58,12,58L12,58z"/>
	<polygon class="st0" points="5.6,48 18.4,48 19.4,46 4.6,46 	"/>
	<polygon class="st0" points="41.3,31 42.7,26.7 40.5,26.2 38.9,29.4 37.1,28.6 38.8,25.2 37.5,23.9 34.7,26.7 33.3,25.3 36.1,22.5 
		34.5,20.9 31.7,23.7 30.3,22.3 33.1,19.5 31.5,17.9 28.7,20.7 27.3,19.3 30.1,16.5 28.8,15.2 25.4,16.9 24.6,15.1 28,13.4 28,12 
		24,12 24,10 28,10 28,8 24,8 24,6 28,6 28,4 22,4 22,16.6 36.4,31 	"/>
	<polygon class="st0" points="20,4.1 7,5.9 7,7.9 20,6.1 	"/>
	<polygon class="st0" points="20,12.1 7,13.9 7,15.9 20,14.1 	"/>
	<polygon class="st0" points="20,8.1 7,9.9 7,11.9 20,10.1 	"/>
	<path class="st0" d="M35.7,37.9L23.8,34H4v6h18v-3c0-0.6,0.4-1,1-1c0.1,0,0.2,0,0.3,0.1L35.2,40H60v-2H36
		C35.9,38,35.8,38,35.7,37.9z"/>
	<path class="st0" d="M55.7,30l-11.1-2.8l-1.7,5.1C42.8,32.7,42.4,33,42,33h-6c-0.3,0-0.5-0.1-0.7-0.3l-15-15
		C20.1,17.5,20,17.3,20,17v-0.9L6.7,17.9L4,23.1L5.8,32H24c0.1,0,0.2,0,0.3,0.1L36.2,36H56v-1c0-0.8,0-1.6-2.2-2l-8-2l0.5-1.9l8,2
		C58,31.8,58,34,58,35v1h2v-1C60,32.7,58.4,30.8,55.7,30z M13.7,29.7C13.5,29.9,13.3,30,13,30l0,0c-0.3,0-0.5-0.1-0.7-0.3l-4-4
		c-1.5-1.5-1.5-3.8-0.1-5.3l0.1-0.1c1.3-1.2,3.2-1.4,4.7-0.5c1.5-0.9,3.4-0.7,4.7,0.5c1.5,1.4,1.6,3.8,0.1,5.3
		c0,0.1-0.1,0.1-0.1,0.1L13.7,29.7z M18.3,28.3l4-4l1.4,1.4l-4,4L18.3,28.3z M23.7,30.7l-1.4-1.4l3-3l1.4,1.4L23.7,30.7z"/>
	<rect x="4" y="42" class="st0" width="56" height="2"/>
	<polygon class="st0" points="43.6,48 56.4,48 57.4,46 42.6,46 	"/>
	<path class="st0" d="M13.7,21.7c-0.4,0.3-1,0.3-1.3,0c-0.8-0.7-1.9-0.7-2.7,0c-0.7,0.7-0.7,1.8,0,2.5l0,0l3.3,3.3l3.3-3.3
		c0.4-0.3,0.6-0.8,0.6-1.3s-0.2-0.9-0.5-1.3C15.6,21.1,14.4,21.1,13.7,21.7z"/>
	<path class="st0" d="M50,50c-2.8,0-5,2.2-5,5s2.2,5,5,5s5-2.2,5-5S52.8,50,50,50z M50,58c-1.7,0-3-1.3-3-3s1.3-3,3-3s3,1.3,3,3
		S51.7,58,50,58L50,58z"/>
</g>
</svg>
